# Blender 4.5.3 LTS
# www.blender.org
mtllib spider_crossings.mtl
o func_static_0013
v 3.200001 32.100006 -3.200003 0.000000 0.000000 0.000000
v -3.200001 32.100006 -3.200003 0.000000 0.000000 0.007843
v 3.200001 32.100006 3.199998 0.000000 0.000000 0.000000
v -3.200001 32.100006 3.199998 0.000000 0.000000 0.000000
vn -0.0000 1.0000 -0.0000
s 1
usemtl textures/ctf_unified/weapfloor_neutral
f 1/1/1 2/2/1 3/3/1
f 2/2/1 4/4/1 3/3/1
o func_static_0768
v -44.800011 12.799985 -239.750061 0.356863 0.286275 0.239216
v -46.237511 12.799985 -239.362564 0.313725 0.258824 0.223529
v -44.800011 13.599985 -236.800049 0.105882 0.086275 0.070588
v -44.656261 13.439984 -237.351303 0.145098 0.117647 0.094118
v -44.800011 13.599985 -236.800049 0.313725 0.247059 0.207843
v -44.800011 13.599985 -236.800049 0.141176 0.113725 0.090196
v -44.800011 13.599985 -236.800049 0.231373 0.180392 0.149020
v -44.800011 13.599985 -236.800049 0.121569 0.090196 0.078431
v -44.800011 13.599985 -236.800049 0.101961 0.070588 0.058824
v -44.800011 12.799985 -239.750061 0.086275 0.066667 0.050980
v -43.362511 12.799985 -239.362564 0.000000 0.000000 0.000000
v -44.800011 13.599985 -236.800049 0.000000 0.000000 0.000000
v -44.800011 13.599985 -236.800049 0.101961 0.082353 0.066667
v -44.800011 13.599985 -236.800049 0.094118 0.074510 0.058824
v -44.436375 13.454531 -237.163712 0.235294 0.184314 0.152941
v -44.800011 13.599985 -236.800049 0.000000 0.000000 0.000000
v -42.237511 12.799985 -238.237564 0.000000 0.000000 0.000000
v -44.800011 13.599985 -236.800049 0.019608 0.003922 0.000000
v -44.800011 13.599985 -236.800049 0.000000 0.000000 0.000000
v -44.800011 13.599985 -236.800049 0.027451 0.011765 0.007843
v -44.800011 13.599985 -236.800049 0.000000 0.000000 0.000000
v -44.800011 13.599985 -236.800049 0.082353 0.062745 0.047059
v -44.800011 13.599985 -236.800049 0.145098 0.117647 0.094118
v -44.800011 13.599985 -236.800049 0.149020 0.121569 0.098039
v -44.800011 13.599985 -236.800049 0.105882 0.086275 0.070588
v -43.362511 12.799985 -239.362564 0.313725 0.258824 0.223529
v -44.012512 13.371413 -237.005402 0.356863 0.286275 0.239216
v -44.800011 13.599985 -236.800049 0.219608 0.168627 0.137255
v -41.85001 12.799985 -236.800049 0.313725 0.247059 0.207843
v -44.800011 13.599985 -236.800049 0.129412 0.101961 0.078431
v -44.800011 13.599985 -236.800049 0.231373 0.180392 0.149020
v -44.800011 13.599985 -236.800049 0.105882 0.074510 0.062745
v -44.800011 13.599985 -236.800049 0.101961 0.070588 0.058824
v -42.237511 12.799985 -238.237564 0.000000 0.000000 0.000000
v -44.24876 13.439984 -236.656311 0.000000 0.000000 0.000000
v -44.800011 13.599985 -236.800049 0.105882 0.086275 0.070588
v -42.237511 12.799985 -235.362549 0.094118 0.074510 0.058824
v -44.800011 13.599985 -236.800049 0.235294 0.184314 0.152941
v -44.800011 13.599985 -236.800049 0.039216 0.023529 0.011765
v -44.800011 13.599985 -236.800049 0.000000 0.000000 0.000000
v -44.800011 13.599985 -236.800049 0.003922 0.003922 0.003922
v -44.800011 13.599985 -236.800049 0.000000 0.000000 0.000000
v -44.800011 13.599985 -236.800049 0.000000 0.000000 0.000000
v -44.800011 13.599985 -236.800049 0.082353 0.062745 0.047059
v -41.85001 12.799985 -236.800049 0.192157 0.149020 0.125490
v -42.237511 12.799985 -235.362549 0.105882 0.086275 0.070588
v -44.800011 13.599985 -236.800049 0.313725 0.258824 0.223529
v -43.362511 12.799985 -234.237549 0.356863 0.286275 0.239216
v -45.301147 13.454531 -236.93074 0.219608 0.168627 0.137255
v -44.800011 13.599985 -236.800049 0.313725 0.247059 0.207843
v -44.800011 13.599985 -236.800049 0.231373 0.180392 0.149020
v -44.800011 13.599985 -236.800049 0.101961 0.070588 0.058824
v -47.750011 12.799985 -236.800049 0.086275 0.066667 0.050980
v -47.362511 12.799985 -238.237564 0.000000 0.000000 0.000000
v -44.800011 13.599985 -236.800049 0.000000 0.000000 0.000000
v -44.800011 13.599985 -236.800049 0.105882 0.086275 0.070588
v -44.800011 13.599985 -236.800049 0.094118 0.074510 0.058824
v -44.800011 13.599985 -236.800049 0.235294 0.184314 0.152941
v -44.800011 13.599985 -236.800049 0.047059 0.031373 0.019608
v -44.800011 13.599985 -236.800049 0.000000 0.000000 0.000000
v -44.440636 13.199985 -235.421936 0.035294 0.019608 0.015686
v -44.800011 13.599985 -236.800049 0.000000 0.000000 0.000000
v -44.800011 12.799985 -233.850052 0.000000 0.000000 0.000000
v -44.800011 13.599985 -236.800049 0.356863 0.286275 0.239216
v -43.362511 12.799985 -234.237549 0.313725 0.258824 0.223529
v -45.087509 13.279985 -235.697571 0.105882 0.086275 0.070588
v -44.800011 13.599985 -236.800049 0.200000 0.156863 0.133333
v -46.237511 12.799985 -234.237549 0.313725 0.247059 0.207843
v -44.800011 13.599985 -236.800049 0.196078 0.160784 0.133333
v -44.800011 13.599985 -236.800049 0.231373 0.180392 0.149020
v -44.800011 12.799985 -233.850052 0.129412 0.101961 0.078431
v -45.800011 13.199985 -235.800049 0.101961 0.070588 0.058824
v -44.800011 13.599985 -236.800049 0.082353 0.062745 0.047059
v -47.362511 12.799985 -235.362549 0.000000 0.000000 0.000000
v -44.800011 13.599985 -236.800049 0.070588 0.054902 0.043137
v -46.237511 12.799985 -234.237549 0.000000 0.000000 0.000000
v -45.301147 13.454531 -236.669373 0.129412 0.101961 0.078431
v -44.800011 13.599985 -236.800049 0.094118 0.074510 0.058824
v -47.750011 12.799985 -236.800049 0.235294 0.184314 0.152941
v -44.800011 13.599985 -236.800049 0.047059 0.031373 0.019608
v -44.800011 13.599985 -236.800049 0.000000 0.000000 0.000000
v -44.800011 13.599985 -236.800049 0.066667 0.050980 0.039216
v -44.800011 13.599985 -236.800049 0.000000 0.000000 0.000000
v -44.800011 13.599985 -236.800049 0.050980 0.035294 0.023529
v -44.800011 13.599985 -236.800049 0.000000 0.000000 0.000000
v -44.800011 13.599985 -236.800049 0.082353 0.062745 0.047059
v -44.800011 13.599985 -236.800049 0.192157 0.149020 0.125490
v -47.362511 12.799985 -235.362549 0.105882 0.086275 0.070588
v -45.466675 13.333318 -237.466736 0.313725 0.258824 0.223529
v -44.800011 13.599985 -236.800049 0.356863 0.286275 0.239216
v -44.800011 13.599985 -236.800049 0.313725 0.247059 0.207843
v -44.800011 13.599985 -236.800049 0.231373 0.180392 0.149020
v -44.800011 13.599985 -236.800049 0.109804 0.078431 0.066667
v -47.362511 12.799985 -238.237564 0.101961 0.070588 0.058824
v -46.237511 12.799985 -239.362564 0.086275 0.066667 0.050980
vn -0.0711 0.9628 -0.2607
vn 0.0712 0.9628 -0.2607
vn -0.0000 -0.0000 -1.0000
vn -0.0000 1.0000 -0.0000
vn 0.0710 0.9628 -0.2608
vn 0.0096 0.9993 -0.0355
vn 0.0711 0.9628 -0.2607
vn 0.1924 0.9623 -0.1924
vn 0.1925 0.9623 -0.1924
vn 0.1925 0.9622 -0.1925
vn 0.1923 0.9623 -0.1924
vn 0.1924 0.9623 -0.1925
vn 0.0278 0.9992 -0.0279
vn 0.2607 0.9628 -0.0712
vn 0.2607 0.9628 -0.0711
vn 0.2608 0.9628 -0.0711
vn 0.0356 0.9993 -0.0096
vn 0.2608 0.9628 0.0709
vn 0.2607 0.9628 0.0711
vn 0.2608 0.9628 0.0710
vn -0.0000 1.0000 -0.0001
vn -0.0000 -0.0000 1.0000
vn 0.2607 0.9628 0.0712
vn 0.0356 0.9993 0.0096
vn 0.1925 0.9623 0.1925
vn -0.2608 0.9628 -0.0711
vn 0.0001 1.0000 -0.0000
vn -0.2607 0.9628 -0.0711
vn -0.0356 0.9993 -0.0096
vn -0.2606 0.9628 -0.0711
vn 0.0711 0.9628 0.2607
vn 0.0712 0.9628 0.2607
vn 0.0711 0.9628 0.2608
vn 0.0096 0.9993 0.0357
vn -0.0711 0.9628 0.2607
vn -0.0712 0.9628 0.2607
vn -0.0712 0.9628 0.2608
vn -0.0096 0.9993 0.0355
vn -0.1925 0.9623 0.1925
vn -0.1925 0.9622 0.1924
vn -0.1924 0.9623 0.1924
vn -0.0278 0.9992 0.0278
vn -0.2607 0.9628 0.0711
vn -0.2607 0.9628 0.0712
vn -0.2608 0.9628 0.0711
vn -0.2607 0.9628 0.0710
vn 0.0001 1.0000 -0.0001
vn -0.0357 0.9993 0.0096
vn -0.1925 0.9623 -0.1924
vn -0.1924 0.9623 -0.1924
vn -0.1925 0.9623 -0.1925
vn -0.1925 0.9622 -0.1925
vn -0.0279 0.9992 -0.0278
vn -0.1924 0.9623 -0.1925
s 1
usemtl textures/ctf_unified/ta_techspawn_blue
f 5/5/2 6/6/2 7/7/2
s 0
f 8/8/3 9/7/4 10/7/5
f 8/8/3 11/7/4 9/7/5
f 8/8/3 12/7/4 11/7/5
f 8/8/3 13/7/4 12/7/5
s 1
f 8/8/6 14/5/3 13/7/7
f 8/8/6 15/9/8 14/5/3
f 8/8/6 16/7/3 15/9/8
s 0
f 8/8/3 17/7/4 16/7/8
f 8/8/3 18/7/4 17/7/5
f 8/8/3 10/7/4 18/7/5
s 1
f 19/10/9 20/7/10 21/11/11
s 0
f 19/10/10 22/7/4 20/7/12
f 19/10/10 23/7/4 22/7/5
f 19/10/10 24/7/4 23/7/5
f 19/10/10 25/7/4 24/7/5
f 19/10/10 26/7/4 25/7/5
f 19/10/10 27/7/4 26/7/5
f 19/10/10 28/7/4 27/7/5
f 19/10/10 29/7/4 28/7/5
s 1
f 19/10/9 30/9/13 29/7/14
f 19/10/9 21/11/11 30/9/13
f 31/12/15 32/7/16 33/13/15
s 0
f 31/12/17 34/7/4 32/7/17
f 31/12/17 35/7/4 34/7/5
f 31/12/17 36/7/4 35/7/5
f 31/12/17 37/7/4 36/7/5
s 1
f 31/12/15 38/11/16 37/7/18
f 31/12/15 33/13/15 38/11/16
f 39/14/19 40/7/20 41/15/20
s 0
f 39/14/21 42/7/4 40/7/21
f 39/14/21 43/7/4 42/7/22
f 39/14/21 44/7/4 43/7/22
f 39/14/21 45/7/4 44/7/22
f 39/14/21 46/7/4 45/7/22
f 39/14/21 47/7/4 46/7/22
f 39/14/21 48/7/23 47/7/22
s 1
f 39/14/19 49/13/24 48/7/25
f 39/14/19 41/15/20 49/13/24
f 50/15/26 51/7/26 52/16/26
s 0
f 53/17/27 54/7/4 55/7/28
f 53/17/27 56/7/4 54/7/28
s 1
f 53/17/29 57/18/29 56/7/30
f 53/17/29 58/19/29 57/18/29
f 53/17/29 59/7/31 58/19/29
s 0
f 53/17/27 60/7/4 59/7/29
f 53/17/27 61/7/4 60/7/28
f 53/17/27 62/7/4 61/7/28
f 53/17/27 63/7/4 62/7/28
f 53/17/27 64/7/4 63/7/28
f 53/17/27 55/7/4 64/7/28
s 1
f 65/20/32 66/7/32 67/21/32
s 0
f 65/20/33 68/7/23 66/7/34
s 1
f 65/20/32 69/16/33 68/7/35
f 65/20/32 67/21/32 69/16/33
f 70/22/36 71/7/36 72/23/36
s 0
f 70/22/37 73/7/4 71/7/38
f 70/22/37 74/7/23 73/7/22
s 1
f 70/22/36 75/21/36 74/7/39
f 70/22/36 72/23/36 75/21/36
f 76/24/40 77/7/40 78/25/40
s 0
f 76/24/41 79/7/23 77/7/42
s 1
f 76/24/40 80/23/40 79/7/43
f 76/24/40 78/25/40 80/23/40
f 81/26/44 82/7/45 83/18/44
s 0
f 81/26/46 84/7/4 82/7/47
f 81/26/46 85/7/4 84/7/48
f 81/26/46 86/7/4 85/7/48
f 81/26/46 87/7/4 86/7/48
f 81/26/46 88/7/4 87/7/48
f 81/26/46 89/7/4 88/7/48
f 81/26/46 90/7/4 89/7/48
f 81/26/46 91/7/23 90/7/48
s 1
f 81/26/44 92/25/44 91/7/49
f 81/26/44 83/18/44 92/25/44
s 0
f 93/27/50 94/7/4 95/7/51
f 93/27/50 96/7/4 94/7/5
f 93/27/50 97/7/4 96/7/5
s 1
f 93/27/52 98/19/53 97/7/54
f 93/27/52 99/6/55 98/19/53
f 93/27/52 95/7/55 99/6/55
o func_static_0769
v 44.656261 13.439984 -237.351303 0.000000 0.000000 0.000000
v 44.800011 13.599985 -236.800049 0.078431 0.062745 0.050980
v 44.800011 13.599985 -236.800049 0.000000 0.000000 0.000000
v 44.800011 13.599985 -236.800049 0.129412 0.101961 0.078431
v 44.800011 13.599985 -236.800049 0.094118 0.074510 0.058824
v 43.362511 12.799985 -239.362564 0.235294 0.184314 0.152941
v 44.800011 12.799985 -239.750061 0.050980 0.035294 0.023529
v 44.800011 13.599985 -236.800049 0.000000 0.000000 0.000000
v 44.800011 13.599985 -236.800049 0.043137 0.027451 0.015686
v 44.800011 13.599985 -236.800049 0.000000 0.000000 0.000000
v 44.800011 13.599985 -236.800049 0.058824 0.043137 0.031373
v 45.159386 13.199985 -238.178177 0.000000 0.000000 0.000000
v 44.800011 13.599985 -236.800049 0.082353 0.062745 0.047059
v 44.800011 13.599985 -236.800049 0.152941 0.125490 0.101961
v 44.800011 12.799985 -239.750061 0.105882 0.086275 0.070588
v 46.237511 12.799985 -239.362564 0.313725 0.258824 0.223529
v 45.200012 13.439984 -237.200058 0.356863 0.286275 0.239216
v 44.800011 13.599985 -236.800049 0.156863 0.129412 0.105882
v 47.362511 12.799985 -238.237564 0.313725 0.247059 0.207843
v 44.800011 13.599985 -236.800049 0.231373 0.180392 0.149020
v 44.800011 13.599985 -236.800049 0.129412 0.098039 0.086275
v 44.800011 13.599985 -236.800049 0.101961 0.070588 0.058824
v 44.800011 13.599985 -236.800049 0.082353 0.062745 0.050980
v 44.800011 13.599985 -236.800049 0.000000 0.000000 0.000000
v 44.800011 13.599985 -236.800049 0.000000 0.000000 0.000000
v 44.800011 13.599985 -236.800049 0.117647 0.098039 0.082353
v 46.237511 12.799985 -239.362564 0.094118 0.074510 0.058824
v 45.41251 13.422208 -236.959778 0.235294 0.184314 0.152941
v 44.800011 13.599985 -236.800049 0.019608 0.015686 0.007843
v 47.750011 12.799985 -236.800049 0.000000 0.000000 0.000000
v 44.800011 13.599985 -236.800049 0.066667 0.050980 0.039216
v 44.800011 13.599985 -236.800049 0.000000 0.000000 0.000000
v 44.800011 13.599985 -236.800049 0.000000 0.000000 0.000000
v 44.800011 13.599985 -236.800049 0.086275 0.066667 0.050980
